<svg xmlns="http://www.w3.org/2000/svg" width="772" height="155" fill="none"><path stroke="#1F2427" stroke-width="14" d="M7 142.003V0M6 79h58m5 63V86m34-4v60m-2-64v-6"/><path stroke="#1F2427" stroke-width="12" d="M448 89v60m0-64v-6m-204 28V97m-30 50v-10"/><path stroke="#1F2427" stroke-width="10" d="M232 142h10"/><path stroke="#1F2427" stroke-width="14" d="M142 135v-10m23 10v-10m-12 20v-10m24-10V75m-45 50V75"/><path stroke="#1F2427" stroke-width="12" d="M334 148v-10m12 10v-10m6 10v-10m-30 0V75m42 63V75m-89 14V76m12 13V76m12 23V86m-24 31v-10m12 10v-10m-24-19v59m-19-50V87m-18 60v-10m-18-56h30m-30 32h30m-36-26v50"/><path stroke="#1F2427" stroke-width="11" d="M414 81.5h-27m27 31h-27m27 31h-27"/><path stroke="#1F2427" stroke-width="10" d="M414 92h10m-47 41h10m-10-41h10m27 31h10m-47-21h10m27 31h10m58-48h30"/><path stroke="#F33D3D" stroke-width="13" d="M670.148 74.358h29.645m-29.645 38.962h33.033"/><path stroke="#1F2427" stroke-width="10" d="M517 139V90m-40 49V90"/><path stroke="#F33D3D" stroke-width="13" d="M668.178 153.7V80.858m62.322 72.984V81m-24.207 72.7V80.858"/><path stroke="#1F2427" stroke-width="10" d="M482 144h30m24-5V89m30 50v-30m-35-24h10m-10 59h10m20 0h10m-30-50h10m0 0h10m0 10h10"/><path stroke="#F33D3D" stroke-width="13" d="M639.656 147.2h8.47M734 75.5h8.47"/><path stroke="#C53434" stroke-width="9" d="M750.613 111.933h8.47"/><path stroke="#F33D3D" stroke-width="9" d="M750.613 111.933h8.47m-16.94 0h8.47"/><path stroke="#F33D3D" stroke-width="13" d="M742 75.5h8.47"/><path stroke="#F33D3D" stroke-width="9" d="M733.673 111.933h8.47"/><path stroke="#F33D3D" stroke-width="13" d="M733.673 148.047h11M750 75.5h9m-16.857 72.547h8.47m0 0h8.47"/><path stroke="#F33D3D" stroke-width="10" d="M759 87h12m-12 40h12m-11.917-32.508h12M759 121h12m-11.917-18.038h12"/><path stroke="#C53434" stroke-width="10" d="M759.083 136.842h12"/><path stroke="#F33D3D" stroke-width="10" d="M759 137h12"/><path stroke="#F33D3D" stroke-width="13" d="M605.5 69v76.23m1.97 1.97h32.186"/></svg>