<svg width="128" height="26" viewBox="0 0 128 26" fill="none" xmlns="http://www.w3.org/2000/svg">
<line x1="1.16527" y1="23.4712" x2="1.16527" y2="7.24792e-05" stroke="white" stroke-width="2.314"/>
<line x1="1" y1="13.0574" x2="10.5866" y2="13.0574" stroke="white" stroke-width="2.314"/>
<line x1="11.4128" y1="23.4702" x2="11.4128" y2="14.2142" stroke="white" stroke-width="2.314"/>
<line x1="17.0327" y1="13.5527" x2="17.0327" y2="23.4699" stroke="white" stroke-width="2.314"/>
<line x1="16.7019" y1="12.8916" x2="16.7019" y2="11.8999" stroke="white" stroke-width="2.314"/>
<line x1="74.0562" y1="14.7104" x2="74.0562" y2="24.6276" stroke="white" stroke-width="1.98343"/>
<line x1="74.0561" y1="14.0493" x2="74.0561" y2="13.0576" stroke="white" stroke-width="1.98343"/>
<line x1="40.3379" y1="17.6855" x2="40.3379" y2="16.0327" stroke="#1F2427" stroke-width="1.98343"/>
<line x1="35.3794" y1="24.2969" x2="35.3794" y2="22.644" stroke="#1F2427" stroke-width="1.98343"/>
<line y1="-0.826427" x2="1.65285" y2="-0.826427" transform="matrix(1 0 0 -1 38.3545 22.6445)" stroke="#1F2427" stroke-width="1.65285"/>
<line x1="23.479" y1="22.3135" x2="23.479" y2="20.6606" stroke="white" stroke-width="2.314"/>
<line x1="27.2805" y1="22.3135" x2="27.2805" y2="20.6606" stroke="white" stroke-width="2.314"/>
<line x1="25.2969" y1="23.9668" x2="25.2969" y2="22.3139" stroke="white" stroke-width="2.314"/>
<line x1="29.2639" y1="20.6606" x2="29.2639" y2="12.3964" stroke="white" stroke-width="2.314"/>
<line y1="-1.157" x2="8.26427" y2="-1.157" transform="matrix(0 -1 -1 0 20.6689 20.6606)" stroke="white" stroke-width="2.314"/>
<line x1="55.2139" y1="24.4624" x2="55.2139" y2="22.8095" stroke="white" stroke-width="1.98343"/>
<line x1="57.197" y1="24.4624" x2="57.197" y2="22.8095" stroke="white" stroke-width="1.98343"/>
<line x1="58.1887" y1="24.4624" x2="58.1887" y2="22.8095" stroke="white" stroke-width="1.98343"/>
<line y1="-0.991713" x2="10.413" y2="-0.991713" transform="matrix(0 -1 -1 0 52.2385 22.8096)" stroke="white" stroke-width="1.98343"/>
<line y1="-0.991713" x2="10.413" y2="-0.991713" transform="matrix(0 -1 -1 0 59.1804 22.8096)" stroke="white" stroke-width="1.98343"/>
<line x1="45.4619" y1="14.71" x2="45.4619" y2="12.5612" stroke="white" stroke-width="1.98343"/>
<line x1="47.4453" y1="14.71" x2="47.4453" y2="12.5612" stroke="white" stroke-width="1.98343"/>
<line x1="49.4287" y1="16.3628" x2="49.4287" y2="14.2141" stroke="white" stroke-width="1.98343"/>
<line x1="45.4619" y1="19.3379" x2="45.4619" y2="17.685" stroke="white" stroke-width="1.98343"/>
<line x1="47.4453" y1="19.3379" x2="47.4453" y2="17.685" stroke="white" stroke-width="1.98343"/>
<line x1="43.4783" y1="14.5454" x2="43.4783" y2="24.2973" stroke="white" stroke-width="1.98343"/>
<line x1="40.3379" y1="16.0327" x2="40.3379" y2="14.3799" stroke="white" stroke-width="1.98343"/>
<line x1="37.3628" y1="24.2969" x2="37.3628" y2="22.644" stroke="white" stroke-width="1.98343"/>
<line x1="34.3875" y1="13.3882" x2="39.346" y2="13.3882" stroke="white" stroke-width="1.98343"/>
<line x1="34.3875" y1="18.6772" x2="39.346" y2="18.6772" stroke="white" stroke-width="1.98343"/>
<line x1="33.396" y1="14.3799" x2="33.396" y2="22.6442" stroke="white" stroke-width="1.98343"/>
<line x1="68.4365" y1="13.4711" x2="63.9738" y2="13.4711" stroke="white" stroke-width="1.81814"/>
<line x1="68.4365" y1="18.5946" x2="63.9738" y2="18.5946" stroke="white" stroke-width="1.81814"/>
<line x1="68.4365" y1="23.7186" x2="63.9738" y2="23.7186" stroke="white" stroke-width="1.81814"/>
<line x1="68.4365" y1="15.2063" x2="70.0894" y2="15.2063" stroke="white" stroke-width="1.65285"/>
<line x1="62.321" y1="21.9831" x2="63.9739" y2="21.9831" stroke="white" stroke-width="1.65285"/>
<line x1="62.321" y1="15.2063" x2="63.9739" y2="15.2063" stroke="white" stroke-width="1.65285"/>
<line x1="68.4365" y1="20.3298" x2="70.0894" y2="20.3298" stroke="white" stroke-width="1.65285"/>
<line x1="62.321" y1="16.8591" x2="63.9739" y2="16.8591" stroke="white" stroke-width="1.65285"/>
<line x1="68.4365" y1="21.9831" x2="70.0894" y2="21.9831" stroke="white" stroke-width="1.65285"/>
<line x1="79.6758" y1="14.0495" x2="84.6343" y2="14.0495" stroke="white" stroke-width="1.65285"/>
<line x1="110.774" y1="12.2904" x2="115.674" y2="12.2904" stroke="#F33D3D" stroke-width="2.14871"/>
<line x1="110.774" y1="18.7303" x2="116.234" y2="18.7303" stroke="#F33D3D" stroke-width="2.14871"/>
<line y1="-0.826427" x2="8.09899" y2="-0.826427" transform="matrix(0 -1 -1 0 84.6343 22.9746)" stroke="white" stroke-width="1.65285"/>
<line y1="-0.826427" x2="8.09899" y2="-0.826427" transform="matrix(0 -1 -1 0 78.0232 22.9746)" stroke="white" stroke-width="1.65285"/>
<line y1="-1.07436" x2="12.0397" y2="-1.07436" transform="matrix(0 -1 -1 0 109.374 25.4043)" stroke="#F33D3D" stroke-width="2.14871"/>
<line y1="-1.07436" x2="12.0397" y2="-1.07436" transform="matrix(0 -1 -1 0 119.675 25.4282)" stroke="#F33D3D" stroke-width="2.14871"/>
<line y1="-1.07436" x2="12.0397" y2="-1.07436" transform="matrix(0 -1 -1 0 115.674 25.4043)" stroke="#F33D3D" stroke-width="2.14871"/>
<line x1="79.6758" y1="23.801" x2="84.6343" y2="23.801" stroke="white" stroke-width="1.65285"/>
<line x1="88.6013" y1="22.9746" x2="88.6013" y2="14.7103" stroke="white" stroke-width="1.65285"/>
<line x1="93.5598" y1="22.9746" x2="93.5598" y2="18.016" stroke="white" stroke-width="1.65285"/>
<line x1="87.7749" y1="14.0495" x2="89.4278" y2="14.0495" stroke="white" stroke-width="1.65285"/>
<line x1="87.7749" y1="23.801" x2="89.4278" y2="23.801" stroke="white" stroke-width="1.65285"/>
<line x1="92.7334" y1="23.801" x2="94.3863" y2="23.801" stroke="white" stroke-width="1.65285"/>
<line x1="89.4277" y1="15.5369" x2="91.0806" y2="15.5369" stroke="white" stroke-width="1.65285"/>
<line x1="91.0806" y1="15.5369" x2="92.7334" y2="15.5369" stroke="white" stroke-width="1.65285"/>
<line x1="92.7334" y1="17.1902" x2="94.3863" y2="17.1902" stroke="white" stroke-width="1.65285"/>
<line x1="105.734" y1="24.3299" x2="107.134" y2="24.3299" stroke="#F33D3D" stroke-width="2.14871"/>
<line x1="121.328" y1="12.4789" x2="122.728" y2="12.4789" stroke="#F33D3D" stroke-width="2.14871"/>
<line x1="124.073" y1="18.5013" x2="125.473" y2="18.5013" stroke="#C53434" stroke-width="1.48757"/>
<line x1="124.073" y1="18.5013" x2="125.473" y2="18.5013" stroke="#F33D3D" stroke-width="1.48757"/>
<line x1="122.674" y1="18.5013" x2="124.074" y2="18.5013" stroke="#F33D3D" stroke-width="1.48757"/>
<line x1="122.65" y1="12.4789" x2="124.05" y2="12.4789" stroke="#F33D3D" stroke-width="2.14871"/>
<line x1="121.274" y1="18.5013" x2="122.674" y2="18.5013" stroke="#F33D3D" stroke-width="1.48757"/>
<line x1="121.274" y1="24.4701" x2="123.092" y2="24.4701" stroke="#F33D3D" stroke-width="2.14871"/>
<line x1="123.972" y1="12.4789" x2="125.46" y2="12.4789" stroke="#F33D3D" stroke-width="2.14871"/>
<line x1="122.674" y1="24.4701" x2="124.074" y2="24.4701" stroke="#F33D3D" stroke-width="2.14871"/>
<line x1="124.073" y1="24.4701" x2="125.473" y2="24.4701" stroke="#F33D3D" stroke-width="2.14871"/>
<line x1="125.46" y1="14.3796" x2="127.443" y2="14.3796" stroke="#F33D3D" stroke-width="1.65285"/>
<line x1="125.46" y1="20.9914" x2="127.443" y2="20.9914" stroke="#F33D3D" stroke-width="1.65285"/>
<line x1="125.474" y1="15.6184" x2="127.457" y2="15.6184" stroke="#F33D3D" stroke-width="1.65285"/>
<line x1="125.46" y1="19.9997" x2="127.443" y2="19.9997" stroke="#F33D3D" stroke-width="1.65285"/>
<line x1="125.474" y1="17.0183" x2="127.457" y2="17.0183" stroke="#F33D3D" stroke-width="1.65285"/>
<line x1="125.474" y1="22.6179" x2="127.457" y2="22.6179" stroke="#C53434" stroke-width="1.65285"/>
<line x1="125.46" y1="22.6438" x2="127.443" y2="22.6438" stroke="#F33D3D" stroke-width="1.65285"/>
<line x1="100.089" y1="11.4048" x2="100.089" y2="24.0045" stroke="#F33D3D" stroke-width="2.14871"/>
<line x1="100.414" y1="24.3299" x2="105.734" y2="24.3299" stroke="#F33D3D" stroke-width="2.14871"/>
</svg>
