<svg xmlns="http://www.w3.org/2000/svg" width="126" height="25" fill="none" xmlns:v="https://vecta.io/nano"><style><![CDATA[.B{stroke:#f33d3d}.C{stroke-width:2.149}.D{stroke-width:1.653}.E{stroke-width:2.314}.F{stroke-width:1.983}.G{stroke-width:1.488}]]></style><g stroke="#fff"><g class="E"><path d="M1.165 23.471V0"/><path d="M1 13.057h9.587m.826 10.413v-9.256m4.744-.661v9.917m-.04-10.478V12"/></g><path d="M72.056 13.71v9.917m0-10.578v-.992m-33.718 4.629v-1.653m-4.959 8.264v-1.653" class="F"/><path d="M36.355 22.471h1.653" class="D"/><g class="E"><path d="M21.81 21.917v-1.653m3.802 1.653v-1.653m-1.984 3.306v-1.653m3.967-1.653V12"/><path transform="matrix(0 -1 -1 0 19 20.2642)" d="M0-1.157h8.264"/></g><g class="F"><path d="M53.214 23.462V21.81m1.983 1.652V21.81m.992 1.652V21.81"/><path transform="matrix(0 -1 -1 0 50.2385 21.8096)" d="M0-.992h10.413"/><path transform="matrix(0 -1 -1 0 57.1804 21.8096)" d="M0-.992h10.413"/><path d="M43.462 13.71v-2.149m1.983 2.149v-2.149m1.984 3.802v-2.149m-3.967 5.124v-1.653m1.983 1.653v-1.653m-3.967-3.14v9.752m-3.14-8.264V13.38m-2.975 9.917v-1.653m-2.975-9.256h4.958m-4.958 5.289h4.958m-5.95-4.297v8.264"/></g><path d="M66.437 12.471h-4.463m4.463 5.124h-4.463m4.463 5.124h-4.463" stroke-width="1.818"/><g class="D"><path d="M66.437 14.206h1.653m-7.769 6.777h1.653"/><path d="M60.321 14.206h1.653m4.463 5.124h1.653m-7.769-3.471h1.653m4.463 5.124h1.653m9.586-7.933h4.959"/></g></g><path d="M108.774 11.29h4.9m-4.9 6.44h5.46" class="B C"/><g stroke="#fff" class="D"><path transform="matrix(0 -1 -1 0 82.6343 21.9746)" d="M0-.826h8.099"/><path transform="matrix(0 -1 -1 0 76.0232 21.9746)" d="M0-.826h8.099"/></g><g class="B C"><path transform="matrix(0 -1 -1 0 107.374 24.4043)" d="M0-1.074h12.04"/><path transform="matrix(0 -1 -1 0 117.675 24.4282)" d="M0-1.074h12.04"/><path transform="matrix(0 -1 -1 0 113.674 24.4043)" d="M0-1.074h12.04"/></g><g stroke="#fff" class="D"><path d="M77.676 22.801h4.959m3.966-.826V13.71m4.959 8.265v-4.959m-5.785-3.966h1.653m-1.653 9.751h1.653m3.305 0h1.653m-4.958-8.264h1.653m0 0h1.653"/><path d="M90.733 16.19h1.653"/></g><path d="M103.734 23.33h1.4m14.194-11.851h1.4" class="B C"/><g class="G"><path stroke="#c53434" d="M122.073 17.501h1.4"/><path d="M122.073 17.501h1.4m-2.799 0h1.4" class="B"/></g><path d="M120.65 11.479h1.4" class="B C"/><path d="M119.274 17.501h1.4" class="B G"/><path d="M119.274 23.47h1.818m.88-11.991h1.488m-2.786 11.991h1.4m-.001 0h1.4" class="C B"/><g class="D"><path d="M123.46 13.38h1.983m-1.983 6.611h1.983m-1.969-5.373h1.983" class="B"/><path d="M123.46 19h1.983m-1.969-2.982h1.983" class="B"/><path stroke="#c53434" d="M123.474 21.618h1.983"/><path d="M123.46 21.644h1.983" class="B"/></g><path d="M98.089 10.405v12.6m.325.325h5.32" class="C B"/></svg>